<svg viewBox="0 0 40 40" xmlns="http://www.w3.org/2000/svg">
<path fill-rule="evenodd" clip-rule="evenodd" d="M20.0004 0.472656C12.6588 0.472656 6.70508 6.42484 6.70508 13.768C6.70508 19.642 10.5145 24.6258 15.7973 26.3836C16.4616 26.5067 16.7057 26.0952 16.7057 25.7439C16.7057 25.427 16.6932 24.3795 16.6876 23.2689C12.9885 24.073 12.2082 21.7002 12.2082 21.7002C11.6035 20.1633 10.732 19.7545 10.732 19.7545C9.5257 18.9295 10.8226 18.9464 10.8226 18.9464C12.1579 19.0402 12.861 20.3167 12.861 20.3167C14.0466 22.3492 15.9713 21.7614 16.7298 21.4217C16.8495 20.5623 17.1938 19.9755 17.5741 19.6436C14.621 19.3077 11.5166 18.1673 11.5166 13.073C11.5166 11.6214 12.036 10.4355 12.8866 9.50422C12.7485 9.16922 12.2935 7.81672 13.0154 5.98547C13.0154 5.98547 14.1316 5.62859 16.6716 7.34891C17.7326 7.05422 18.8701 6.90641 19.9998 6.90141C21.1298 6.90672 22.2679 7.05453 23.3304 7.34891C25.8679 5.62891 26.9829 5.98578 26.9829 5.98578C27.7066 7.81703 27.2516 9.16922 27.1135 9.50453C27.966 10.4352 28.4816 11.6214 28.4816 13.0733C28.4816 18.1795 25.3713 19.3039 22.4107 19.6327C22.8876 20.0452 23.3126 20.8545 23.3126 22.0952C23.3126 23.8739 23.2976 25.3055 23.2976 25.7433C23.2976 26.0964 23.537 26.5114 24.2107 26.3808C29.4907 24.6208 33.2951 19.6389 33.2951 13.7667C33.2957 6.42516 27.3432 0.472656 20.0004 0.472656Z"/>
<path d="M11.7412 19.5615C11.7115 19.6277 11.6074 19.6474 11.513 19.6021C11.4162 19.5583 11.3624 19.4687 11.3937 19.4021C11.4218 19.3346 11.5262 19.3155 11.6227 19.3608C11.7196 19.4046 11.7746 19.4952 11.7415 19.5615H11.7412ZM12.2796 20.1627C12.2162 20.2212 12.0921 20.194 12.0077 20.1008C11.9208 20.008 11.9046 19.884 11.969 19.8246C12.034 19.7658 12.1543 19.7933 12.2408 19.8862C12.3283 19.9799 12.3455 20.1027 12.2793 20.1624L12.2796 20.1627ZM12.8037 20.9277C12.7224 20.9846 12.589 20.9315 12.5068 20.813C12.4249 20.6952 12.4249 20.5537 12.5083 20.4965C12.5908 20.4396 12.7221 20.4908 12.8052 20.608C12.8871 20.7283 12.8871 20.8705 12.8037 20.928V20.9277ZM13.5218 21.6677C13.449 21.748 13.2937 21.7265 13.1802 21.6168C13.064 21.5096 13.0318 21.3574 13.1046 21.2771C13.1787 21.1968 13.3346 21.2193 13.449 21.328C13.5646 21.4349 13.5996 21.5874 13.5218 21.6674V21.6677ZM14.513 22.0971C14.4805 22.2015 14.3312 22.2487 14.1805 22.2046C14.0299 22.159 13.9318 22.0371 13.9618 21.9321C13.993 21.8271 14.1437 21.778 14.2952 21.8252C14.4452 21.8702 14.5437 21.9908 14.5127 22.0971H14.513ZM15.6005 22.1768C15.6046 22.2862 15.4768 22.3774 15.3187 22.3793C15.1599 22.383 15.0312 22.2943 15.0293 22.1862C15.0293 22.0755 15.1543 21.9855 15.313 21.983C15.4712 21.9799 15.6005 22.068 15.6005 22.1768ZM16.613 22.0046C16.6318 22.1115 16.5224 22.2215 16.3652 22.2505C16.2108 22.2793 16.0683 22.213 16.0483 22.1068C16.0296 21.9974 16.1412 21.888 16.2952 21.8593C16.4524 21.8318 16.593 21.8962 16.613 22.0049V22.0046Z"/>
<path d="M7.76723 31.012H4.42348C4.38204 31.012 4.34229 31.0285 4.31299 31.0578C4.28369 31.0871 4.26723 31.1268 4.26723 31.1683V32.8033C4.26723 32.8447 4.28369 32.8844 4.31299 32.9137C4.34229 32.943 4.38204 32.9595 4.42348 32.9595H5.72754V34.9908C5.72754 34.9908 5.43473 35.0908 4.62441 35.0908C3.66941 35.0908 2.33473 34.742 2.33473 31.807C2.33473 28.8717 3.72473 28.4851 5.02973 28.4851C6.1591 28.4851 6.64535 28.6839 6.95535 28.7798C7.05223 28.8092 7.14285 28.7123 7.14285 28.6261L7.51566 27.0464C7.51627 27.0227 7.51112 26.9993 7.50067 26.9781C7.49022 26.9568 7.47478 26.9385 7.45566 26.9245C7.32973 26.8345 6.56285 26.4058 4.62504 26.4058C2.39254 26.4058 0.102539 27.3551 0.102539 31.9214C0.102539 36.487 2.72441 37.1673 4.93379 37.1673C6.76316 37.1673 7.87285 36.3855 7.87285 36.3855C7.91848 36.3605 7.92348 36.2964 7.92348 36.2667V31.168C7.92348 31.1265 7.90701 31.0868 7.87771 31.0575C7.84841 31.0282 7.80867 31.0117 7.76723 31.0117V31.012ZM24.8457 26.7958H22.9625C22.942 26.7958 22.9217 26.8 22.9027 26.8079C22.8838 26.8159 22.8666 26.8275 22.8521 26.8421C22.8377 26.8567 22.8262 26.874 22.8185 26.893C22.8107 26.912 22.8068 26.9324 22.8069 26.953L22.8075 30.5917H19.8725V26.953C19.8727 26.9324 19.8687 26.9121 19.861 26.8931C19.8533 26.8741 19.8419 26.8568 19.8274 26.8422C19.813 26.8276 19.7959 26.816 19.777 26.808C19.758 26.8 19.7377 26.7959 19.7172 26.7958H17.8344C17.8139 26.7958 17.7935 26.8 17.7746 26.8079C17.7556 26.8159 17.7385 26.8275 17.724 26.8421C17.7095 26.8567 17.6981 26.874 17.6904 26.893C17.6826 26.912 17.6787 26.9324 17.6788 26.953V36.8061C17.6788 36.8926 17.7488 36.9633 17.8344 36.9633H19.7172C19.7378 36.9631 19.7581 36.959 19.777 36.951C19.796 36.943 19.8131 36.9314 19.8275 36.9167C19.842 36.9021 19.8534 36.8848 19.8611 36.8657C19.8688 36.8467 19.8727 36.8263 19.8725 36.8058V32.5914H22.8075L22.8025 36.8058C22.8025 36.8926 22.8725 36.9633 22.9588 36.9633H24.8457C24.8662 36.9631 24.8865 36.959 24.9055 36.951C24.9244 36.943 24.9416 36.9314 24.956 36.9167C24.9704 36.9021 24.9818 36.8848 24.9895 36.8657C24.9973 36.8467 25.0011 36.8263 25.001 36.8058V26.9526C25.001 26.8658 24.9322 26.7958 24.8457 26.7958ZM10.1063 27.0198C9.43629 27.0198 8.89254 27.5676 8.89254 28.2458C8.89254 28.9229 9.43629 29.4723 10.1063 29.4723C10.7769 29.4723 11.3204 28.9229 11.3204 28.2458C11.3204 27.5676 10.7766 27.0198 10.1063 27.0198ZM11.03 30.0223H9.15316C9.06691 30.0223 8.99004 30.1111 8.99004 30.1973V36.7136C8.99004 36.9051 9.10941 36.962 9.26379 36.962H10.9544C11.1404 36.962 11.1857 36.8708 11.1857 36.7105V34.7273V30.1795C11.1857 30.159 11.1818 30.1387 11.174 30.1197C11.1662 30.1007 11.1548 30.0834 11.1403 30.0688C11.1259 30.0543 11.1087 30.0427 11.0898 30.0348C11.0709 30.0268 11.0506 30.0227 11.03 30.0226V30.0223ZM32.1569 30.037H30.2882C30.2676 30.0372 30.2474 30.0414 30.2285 30.0494C30.2096 30.0574 30.1924 30.069 30.178 30.0837C30.1636 30.0983 30.1523 30.1156 30.1446 30.1346C30.1369 30.1536 30.133 30.174 30.1332 30.1945V35.0258C30.1332 35.0258 29.6582 35.3726 28.9847 35.3726C28.3113 35.3726 28.1325 35.0673 28.1325 34.4076V30.1945C28.1327 30.174 28.1288 30.1536 28.1211 30.1346C28.1134 30.1155 28.102 30.0982 28.0875 30.0835C28.0731 30.0689 28.056 30.0573 28.037 30.0493C28.0181 30.0413 27.9978 30.0371 27.9772 30.037H26.081C26.0395 30.0373 25.9998 30.0541 25.9706 30.0836C25.9415 30.1131 25.9252 30.153 25.9254 30.1945V34.7264C25.9254 36.6858 27.0175 37.1651 28.5197 37.1651C29.7522 37.1651 30.746 36.4839 30.746 36.4839C30.746 36.4839 30.7929 36.8433 30.8147 36.8855C30.8366 36.9279 30.8919 36.9708 30.9522 36.9708L32.1585 36.9654C32.1791 36.9654 32.1995 36.9612 32.2185 36.9533C32.2375 36.9453 32.2547 36.9337 32.2692 36.9191C32.2837 36.9044 32.2952 36.8871 32.303 36.868C32.3108 36.849 32.3148 36.8286 32.3147 36.808L32.3138 30.1936C32.3136 30.1521 32.2971 30.1124 32.2679 30.083C32.2386 30.0537 32.199 30.037 32.1575 30.0367L32.1569 30.037ZM37.2638 29.8158C36.2025 29.8158 35.4807 30.2892 35.4807 30.2892V26.9526C35.4808 26.9321 35.4769 26.9118 35.4691 26.8928C35.4614 26.8738 35.45 26.8565 35.4356 26.8419C35.4211 26.8273 35.404 26.8157 35.3851 26.8077C35.3662 26.7997 35.3459 26.7956 35.3254 26.7954H33.4375C33.4169 26.7954 33.3965 26.7995 33.3775 26.8074C33.3585 26.8153 33.3412 26.8269 33.3267 26.8415C33.3122 26.8562 33.3007 26.8735 33.2929 26.8926C33.2851 26.9116 33.2812 26.932 33.2813 26.9526V36.8058C33.2812 36.8264 33.2851 36.8468 33.2929 36.8658C33.3007 36.8849 33.3122 36.9022 33.3267 36.9169C33.3412 36.9315 33.3585 36.9431 33.3775 36.951C33.3965 36.9589 33.4169 36.963 33.4375 36.963H34.7475C34.8069 36.963 34.8513 36.9326 34.8841 36.8792C34.9163 36.8261 34.9635 36.4248 34.9635 36.4248C34.9635 36.4248 35.7354 37.1561 37.1972 37.1561C38.9128 37.1561 39.8972 36.2861 39.8972 33.2492C39.8972 30.2123 38.3253 29.8155 37.2635 29.8155L37.2638 29.8158ZM36.5263 35.367C35.8785 35.3473 35.4388 35.0533 35.4388 35.0533V31.933C35.4388 31.933 35.8725 31.6673 36.4044 31.6192C37.0772 31.5589 37.7257 31.7623 37.7257 33.3673C37.7257 35.0601 37.4335 35.3942 36.5266 35.3667L36.5263 35.367ZM16.6235 35.3301C16.5413 35.3301 16.3307 35.3636 16.1141 35.3636C15.4204 35.3636 15.185 35.0411 15.185 34.6236V31.8529H16.5975C16.6182 31.8529 16.6386 31.8489 16.6576 31.8409C16.6767 31.833 16.6939 31.8214 16.7085 31.8067C16.723 31.7921 16.7345 31.7747 16.7423 31.7556C16.75 31.7365 16.754 31.7161 16.7538 31.6954V30.178C16.7539 30.1574 16.7499 30.137 16.7421 30.118C16.7343 30.0989 16.7228 30.0816 16.7082 30.0671C16.6937 30.0525 16.6765 30.0409 16.6575 30.033C16.6385 30.0251 16.6181 30.0211 16.5975 30.0211H15.185L15.1829 28.1555C15.1829 28.0845 15.1466 28.0492 15.0647 28.0492H13.1397C13.0654 28.0492 13.025 28.0823 13.025 28.1539V30.082C13.025 30.082 12.0604 30.3148 11.9954 30.3336C11.9629 30.343 11.9344 30.3628 11.9141 30.3898C11.8938 30.4169 11.8829 30.4498 11.8829 30.4836V31.6951C11.8827 31.7157 11.8866 31.736 11.8944 31.755C11.9021 31.774 11.9135 31.7913 11.928 31.8059C11.9424 31.8205 11.9595 31.8321 11.9784 31.8401C11.9974 31.848 12.0176 31.8522 12.0382 31.8523H13.025V34.7673C13.025 36.933 14.5438 37.1455 15.5688 37.1455C16.0366 37.1455 16.5969 36.9954 16.6894 36.9611C16.7457 36.9401 16.7779 36.8823 16.7779 36.8195L16.7791 35.4867C16.7785 35.4454 16.7618 35.406 16.7327 35.3767C16.7035 35.3474 16.6641 35.3306 16.6229 35.3298L16.6235 35.3301Z"/>
</svg>
