<svg width="60" height="16" viewBox="0 0 60 16" fill="none" xmlns="http://www.w3.org/2000/svg">
<path d="M11.5563 6.84845H6.51485C6.45236 6.84845 6.39244 6.87292 6.34826 6.91649C6.30408 6.96006 6.27926 7.01915 6.27926 7.08076V9.51163C6.27926 9.57324 6.30408 9.63233 6.34826 9.6759C6.39244 9.71946 6.45236 9.74394 6.51485 9.74394H8.48103V12.7639C8.48103 12.7639 8.03955 12.9126 6.81781 12.9126C5.37792 12.9126 3.36556 12.3941 3.36556 8.03043C3.36556 3.66629 5.46131 3.09156 7.42891 3.09156C9.13171 3.09156 9.86485 3.38705 10.3323 3.52969C10.4783 3.57337 10.615 3.42934 10.615 3.3011L11.1771 0.952465C11.178 0.917299 11.1702 0.88244 11.1545 0.85088C11.1387 0.819319 11.1154 0.792 11.0866 0.771265C10.8967 0.637456 9.74047 0 6.81875 0C3.45272 0 0 1.41151 0 8.20048C0 14.9885 3.9531 16 7.28426 16C10.0425 16 11.7156 14.8375 11.7156 14.8375C11.7844 14.8004 11.7919 14.7051 11.7919 14.661V7.08029C11.7919 7.01868 11.7671 6.95959 11.7229 6.91603C11.6788 6.87246 11.6188 6.84799 11.5563 6.84799V6.84845ZM37.3062 0.579842H34.4669C34.4359 0.579964 34.4053 0.586111 34.3767 0.597927C34.3482 0.609743 34.3222 0.626998 34.3004 0.648706C34.2786 0.670413 34.2614 0.696146 34.2497 0.724432C34.238 0.752717 34.2321 0.783001 34.2323 0.813547L34.2332 6.22354H29.808V0.813547C29.8082 0.783039 29.8023 0.752793 29.7906 0.724538C29.7789 0.696283 29.7617 0.67057 29.74 0.648869C29.7183 0.627167 29.6924 0.609902 29.6639 0.598058C29.6354 0.586215 29.6048 0.580024 29.5738 0.579842H26.735C26.7041 0.579964 26.6734 0.586111 26.6448 0.597927C26.6163 0.609743 26.5904 0.626998 26.5686 0.648706C26.5468 0.670413 26.5295 0.696146 26.5178 0.724432C26.5061 0.752717 26.5002 0.783001 26.5004 0.813547V15.4629C26.5004 15.5916 26.6059 15.6966 26.735 15.6966H29.5738C29.6048 15.6964 29.6354 15.6902 29.664 15.6783C29.6925 15.6665 29.7184 15.6492 29.7402 15.6274C29.7619 15.6057 29.7791 15.5799 29.7907 15.5516C29.8024 15.5233 29.8082 15.493 29.808 15.4624V9.19662H34.2332L34.2257 15.4624C34.2257 15.5916 34.3312 15.6966 34.4613 15.6966H37.3062C37.3371 15.6964 37.3678 15.6902 37.3963 15.6783C37.4249 15.6665 37.4508 15.6492 37.4725 15.6274C37.4943 15.6057 37.5114 15.5799 37.5231 15.5516C37.5347 15.5233 37.5406 15.493 37.5403 15.4624V0.813079C37.5403 0.683915 37.4367 0.579842 37.3062 0.579842ZM15.083 0.912973C14.0729 0.912973 13.253 1.72744 13.253 2.73566C13.253 3.74249 14.0729 4.55928 15.083 4.55928C16.0942 4.55928 16.9135 3.74249 16.9135 2.73566C16.9135 1.72744 16.0937 0.912973 15.083 0.912973ZM16.4758 5.37701H13.646C13.5159 5.37701 13.4 5.50896 13.4 5.63719V15.3254C13.4 15.6102 13.58 15.6947 13.8128 15.6947H16.3618C16.6421 15.6947 16.7105 15.5591 16.7105 15.3207V12.3723V5.61071C16.7106 5.5802 16.7046 5.54997 16.6929 5.52174C16.6812 5.49351 16.6639 5.46783 16.6421 5.44617C16.6203 5.42451 16.5944 5.4073 16.5659 5.39551C16.5374 5.38373 16.5068 5.3776 16.4758 5.37747V5.37701ZM48.3296 5.39884H45.512C45.4811 5.39909 45.4505 5.40534 45.422 5.41724C45.3935 5.42914 45.3677 5.44645 45.346 5.4682C45.3243 5.48994 45.3072 5.51569 45.2956 5.54397C45.2839 5.57225 45.2781 5.6025 45.2783 5.63301V12.816C45.2783 12.816 44.5622 13.3317 43.5468 13.3317C42.5314 13.3317 42.2619 12.8778 42.2619 11.897V5.63301C42.2622 5.60246 42.2563 5.57217 42.2447 5.54386C42.233 5.51555 42.2158 5.48979 42.1941 5.46803C42.1723 5.44628 42.1465 5.42898 42.1179 5.4171C42.0894 5.40523 42.0587 5.39903 42.0278 5.39884H39.1687C39.1061 5.39934 39.0463 5.42425 39.0023 5.46814C38.9584 5.51203 38.9338 5.57131 38.9341 5.63301V12.3709C38.9341 15.284 40.5808 15.9967 42.8457 15.9967C44.704 15.9967 46.2023 14.9839 46.2023 14.9839C46.2023 14.9839 46.273 15.5182 46.306 15.5809C46.3389 15.6441 46.4223 15.7078 46.5133 15.7078L48.332 15.6999C48.363 15.6997 48.3938 15.6936 48.4224 15.6817C48.4511 15.6699 48.4771 15.6526 48.499 15.6309C48.5208 15.6091 48.5382 15.5834 48.5499 15.555C48.5617 15.5267 48.5677 15.4963 48.5676 15.4657L48.5662 5.63162C48.5659 5.56999 48.541 5.51095 48.4969 5.46729C48.4528 5.42363 48.3931 5.39887 48.3306 5.39838L48.3296 5.39884ZM56.0295 5.0699C54.4294 5.0699 53.341 5.77379 53.341 5.77379V0.813079C53.3412 0.782572 53.3353 0.752329 53.3236 0.724074C53.3119 0.695819 53.2947 0.670106 53.273 0.648404C53.2512 0.626703 53.2254 0.609437 53.1969 0.597594C53.1683 0.58575 53.1377 0.57956 53.1068 0.579378H50.2605C50.2294 0.579377 50.1987 0.585432 50.17 0.597193C50.1413 0.608955 50.1153 0.626192 50.0934 0.647912C50.0715 0.669631 50.0542 0.695405 50.0424 0.723751C50.0307 0.752097 50.0247 0.782455 50.0249 0.813079V15.4624C50.0247 15.4931 50.0307 15.5234 50.0424 15.5518C50.0542 15.5801 50.0715 15.6059 50.0934 15.6276C50.1153 15.6493 50.1413 15.6666 50.17 15.6783C50.1987 15.6901 50.2294 15.6961 50.2605 15.6961H52.2356C52.3251 15.6961 52.392 15.6511 52.4415 15.5716C52.49 15.4926 52.5612 14.8961 52.5612 14.8961C52.5612 14.8961 53.725 15.9833 55.9291 15.9833C58.5158 15.9833 60 14.6898 60 10.1746C60 5.65949 57.63 5.06943 56.029 5.06943L56.0295 5.0699ZM54.9175 13.3233C53.9408 13.2941 53.2778 12.8569 53.2778 12.8569V8.21767C53.2778 8.21767 53.9318 7.82275 54.7338 7.7512C55.7482 7.66153 56.7258 7.96399 56.7258 10.3503C56.7258 12.8671 56.2853 13.3638 54.918 13.3229L54.9175 13.3233ZM24.9093 13.2685C24.7853 13.2685 24.4678 13.3182 24.1413 13.3182C23.0953 13.3182 22.7405 12.8387 22.7405 12.218V8.09873H24.8702C24.9013 8.09873 24.932 8.09266 24.9607 8.08087C24.9895 8.06908 25.0155 8.0518 25.0374 8.03003C25.0593 8.00826 25.0766 7.98244 25.0883 7.95404C25.1001 7.92564 25.106 7.89523 25.1057 7.86456V5.60839C25.1059 5.5778 25.0999 5.5475 25.0881 5.5192C25.0763 5.49091 25.059 5.46519 25.0371 5.44352C25.0152 5.42185 24.9892 5.40465 24.9605 5.39292C24.9319 5.38119 24.9012 5.37515 24.8702 5.37515H22.7405L22.7372 2.60139C22.7372 2.49592 22.6825 2.44342 22.5591 2.44342H19.6567C19.5445 2.44342 19.4838 2.49267 19.4838 2.59907V5.46575C19.4838 5.46575 18.0293 5.81189 17.9313 5.83976C17.8823 5.85384 17.8393 5.88318 17.8088 5.9234C17.7782 5.96361 17.7616 6.01252 17.7616 6.06278V7.8641C17.7615 7.89461 17.7674 7.92485 17.779 7.95311C17.7907 7.98136 17.8079 8.00708 17.8296 8.02878C17.8514 8.05048 17.8772 8.06774 17.9058 8.07959C17.9343 8.09143 17.9649 8.09762 17.9958 8.0978H19.4838V12.4317C19.4838 15.6515 21.7736 15.9675 23.3191 15.9675C24.0244 15.9675 24.8692 15.7445 25.0087 15.6934C25.0935 15.6622 25.142 15.5763 25.142 15.4829L25.1439 13.5013C25.1429 13.4399 25.1178 13.3813 25.0739 13.3377C25.0299 13.2942 24.9706 13.2693 24.9083 13.2681L24.9093 13.2685Z" fill="#848E9F"/>
</svg>
