<svg viewBox="0 0 32 32" xmlns="http://www.w3.org/2000/svg">
<circle cx="16" cy="16" r="11" fill="white"/>
<path d="M16.0007 1.33301C7.90098 1.33301 1.33398 7.90001 1.33398 15.9997C1.33398 24.0993 7.90098 30.6663 16.0007 30.6663C24.1003 30.6663 30.6673 24.0993 30.6673 15.9997C30.6673 7.90001 24.1003 1.33301 16.0007 1.33301ZM23.2044 11.3809L20.7966 22.7231C20.6194 23.5273 20.1403 23.7229 19.4718 23.344L15.8051 20.6429L14.0378 22.3467C13.8667 22.5667 13.6014 22.7072 13.3044 22.7072C13.302 22.7072 13.3008 22.7072 13.2983 22.7072L13.5587 18.9746L20.3542 12.8366C20.6475 12.5762 20.2882 12.4283 19.8983 12.6887L11.5029 17.976L7.8851 16.8467C7.10287 16.5986 7.08087 16.0645 8.0501 15.6807L22.1863 10.232C22.8439 9.99245 23.4159 10.3885 23.2032 11.3821L23.2044 11.3809Z"/>
</svg>
