<svg viewBox="0 0 32 32" xmlns="http://www.w3.org/2000/svg">
<circle cx="16" cy="16" r="11" fill="white"/>
<path d="M16.2666 1.33301C8.31407 1.33301 1.86657 7.7301 1.86657 15.622C1.86657 18.3216 2.62164 20.8464 3.93293 23.0003L1.33398 30.6663L9.30663 28.1336C11.3697 29.2653 13.7423 29.911 16.2666 29.911C24.2202 29.911 30.6673 23.513 30.6673 15.622C30.6673 7.7301 24.2202 1.33301 16.2666 1.33301ZM23.4272 21.0485C23.0884 21.8884 21.5563 22.6549 20.8803 22.6902C20.2049 22.726 20.1857 23.2136 16.5038 21.6141C12.8224 20.0143 10.6076 16.1243 10.4329 15.8738C10.2582 15.6242 9.00688 13.841 9.07438 12.0464C9.14235 10.2515 10.1251 9.40472 10.4758 9.05252C10.8262 8.6998 11.2279 8.63662 11.4732 8.63262C11.7631 8.62791 11.9509 8.62398 12.1654 8.6319C12.3798 8.64002 12.7018 8.58705 12.9806 9.3285C13.2593 10.0699 13.9263 11.8921 14.0116 12.0778C14.0969 12.2637 14.1496 12.4789 14.0183 12.7176C13.8866 12.9567 13.8191 13.1062 13.628 13.3123C13.4358 13.5184 13.2237 13.7734 13.0523 13.931C12.8611 14.1054 12.6614 14.2958 12.8624 14.6688C13.0633 15.0416 13.7564 16.2635 14.8123 17.2706C16.1693 18.5651 17.3395 18.9945 17.6996 19.1901C18.0607 19.3868 18.2762 19.365 18.5001 19.1293C18.723 18.8937 19.4586 18.0983 19.7177 17.7432C19.9767 17.3872 20.2193 17.4569 20.552 17.5907C20.8845 17.7251 22.6576 18.6748 23.0187 18.8709C23.3795 19.0666 23.6206 19.1674 23.7069 19.3227C23.7931 19.4785 23.7659 20.2086 23.4272 21.0485Z"/>
</svg>
